<svg xmlns="http://www.w3.org/2000/svg" width="22" height="16" viewBox="0 0 22 16" fill="none">
  <path d="M15.94 2.91L14.53 4.36C15.43 5.3 15.99 6.58 15.99 8C15.99 9.42 15.43 10.71 14.53 11.64L15.94 13.09C17.21 11.78 17.99 9.98 17.99 8C17.99 6.02 17.21 4.21 15.94 2.91ZM18.77 0L17.36 1.45C18.98 3.13 20 5.44 20 8.01C20 10.58 18.99 12.89 17.36 14.55L18.76 16C20.77 13.96 22 11.13 22 8.01C22 4.88 20.77 2.05 18.77 0ZM6.06 2.91C4.79 4.21 4.01 6.01 4.01 8C4.01 9.99 4.79 11.79 6.06 13.09L7.47 11.64C6.57 10.7 6.01 9.42 6.01 8C6.01 6.58 6.57 5.29 7.47 4.36L6.06 2.91ZM4.64 1.45L3.24 0C1.23 2.04 0 4.87 0 7.99C0 11.12 1.23 13.95 3.23 16L4.64 14.55C3.02 12.87 2 10.56 2 7.99C2 5.42 3.01 3.11 4.64 1.45Z" fill="#606060"/>
  <path d="M11 11C12.6569 11 14 9.65685 14 8C14 6.34315 12.6569 5 11 5C9.34315 5 8 6.34315 8 8C8 9.65685 9.34315 11 11 11Z" fill="#606060"/>
</svg>