<svg xmlns="http://www.w3.org/2000/svg" width="18" height="18" viewBox="0 0 18 18" fill="none">
  <path d="M15.3999 2.60002V15.4H2.5999V2.60002H15.3999ZM15.3999 0.800021H2.5999C2.12251 0.800021 1.66467 0.989663 1.32711 1.32723C0.989541 1.66479 0.799899 2.12263 0.799899 2.60002V15.4C0.786286 15.6447 0.822769 15.8895 0.907112 16.1196C0.991455 16.3497 1.12188 16.5601 1.2904 16.738C1.45893 16.9158 1.66199 17.0574 1.88716 17.1541C2.11233 17.2507 2.35486 17.3004 2.5999 17.3H15.3999C15.6532 17.3145 15.9067 17.2753 16.1438 17.185C16.3809 17.0946 16.5962 16.9552 16.7756 16.7758C16.955 16.5963 17.0945 16.381 17.1849 16.1439C17.2752 15.9068 17.3144 15.6533 17.2999 15.4V2.60002C17.3003 2.35499 17.2506 2.11245 17.154 1.88728C17.0573 1.66211 16.9157 1.45905 16.7378 1.29053C16.56 1.122 16.3495 0.991577 16.1195 0.907234C15.8894 0.822891 15.6446 0.786408 15.3999 0.800021Z" fill="#606060"/>
  <path d="M7.19995 6V12.5L12.2 9.3L7.19995 6.1V6Z" fill="#606060"/>
</svg>