<svg xmlns="http://www.w3.org/2000/svg" width="20" height="15" viewBox="0 0 20 15" fill="none">
  <path d="M19.78 3.00001C19.78 3.00001 19.58 1.63001 18.98 1.03001C18.23 0.230006 17.38 0.230006 16.98 0.180006C14.2 -0.0199939 10 6.25208e-06 10 6.25208e-06C10 6.25208e-06 5.82 -0.0199939 3.03 0.180006C2.63 0.230006 1.79 0.230006 1.03 1.03001C0.43 1.63001 0.23 3.00001 0.23 3.00001C0.23 3.00001 0.03 4.63001 0 6.23001V7.93001C0.03 9.53001 0.23 11.13 0.23 11.13C0.23 11.13 0.43 12.53 1.03 13.13C1.79 13.93 2.78 13.89 3.23 13.98C4.8 14.13 9.83 14.16 10 14.16C10 14.16 14.2 14.16 17 13.96C17.38 13.92 18.23 13.92 19 13.12C19.6 12.52 19.8 11.14 19.8 11.14C19.8 11.14 20 9.54001 20 7.92001V6.22001C19.98 4.62001 19.78 3.00001 19.78 3.00001ZM7.98 10V4.16001L13.33 7.19001L7.97 10H7.98Z" fill="#606060"/>
</svg>